<svg width="23" height="31" viewBox="0 0 23 31" fill="none" xmlns="http://www.w3.org/2000/svg">
<path d="M21.8994 0H15.4387C14.8342 0 14.3379 0.435937 14.3379 0.976823V30.0151C14.3379 30.556 14.8251 31 15.4387 31H21.8994C22.5039 31 23.0002 30.5641 23.0002 30.0151V0.976823C23.0002 0.435937 22.513 0 21.8994 0Z" fill="#B3B3B3"/>
<path d="M7.5615 0H1.10084C0.496281 0 0 0.435937 0 0.976823V30.0151C0 30.556 0.487258 31 1.10084 31H7.5615C8.16606 31 8.66234 30.5641 8.66234 30.0151V0.976823C8.66234 0.435937 8.17508 0 7.5615 0Z" fill="#B3B3B3"/>
</svg>
